<svg width="42" height="16" viewBox="0 0 42 16" fill="none" xmlns="http://www.w3.org/2000/svg">
<path d="M4.28 15.784H0.44V0.592H7.208C8.728 0.592 9.944 0.776 10.856 1.144C11.768 1.512 12.424 2.112 12.824 2.944C13.224 3.776 13.424 4.904 13.424 6.328C13.424 7.672 13.224 8.768 12.824 9.616C12.424 10.448 11.768 11.064 10.856 11.464C9.944 11.864 8.728 12.064 7.208 12.064H4.28V15.784ZM6.584 3.736H4.28V8.92H6.584C7.72 8.92 8.48 8.728 8.864 8.344C9.248 7.96 9.44 7.288 9.44 6.328C9.44 5.416 9.248 4.76 8.864 4.36C8.48 3.944 7.72 3.736 6.584 3.736ZM15.0794 11.872C15.7834 12.112 16.5514 12.304 17.3834 12.448C18.2314 12.576 19.0714 12.64 19.9034 12.64C21.0394 12.64 21.8794 12.592 22.4234 12.496C22.9834 12.384 23.3514 12.216 23.5274 11.992C23.7034 11.768 23.7914 11.48 23.7914 11.128C23.7914 10.824 23.7274 10.584 23.5994 10.408C23.4714 10.232 23.2234 10.096 22.8554 10C22.4874 9.888 21.9434 9.8 21.2234 9.736L19.6394 9.592C18.4554 9.48 17.5194 9.232 16.8314 8.848C16.1594 8.464 15.6794 7.952 15.3914 7.312C15.1194 6.656 14.9834 5.872 14.9834 4.96C14.9834 3.872 15.1994 2.992 15.6314 2.32C16.0794 1.648 16.7994 1.16 17.7914 0.855999C18.7834 0.535999 20.1034 0.375999 21.7514 0.375999C23.8954 0.375999 25.6634 0.655999 27.0554 1.216L26.9834 4.48L26.9114 4.576C25.3274 4.016 23.6714 3.736 21.9434 3.736C21.1114 3.736 20.4714 3.784 20.0234 3.88C19.5754 3.96 19.2634 4.096 19.0874 4.288C18.9114 4.48 18.8234 4.752 18.8234 5.104C18.8234 5.456 18.8794 5.72 18.9914 5.896C19.1194 6.072 19.3674 6.208 19.7354 6.304C20.1034 6.384 20.6394 6.464 21.3434 6.544L22.8554 6.712C24.1354 6.856 25.1194 7.112 25.8074 7.48C26.4954 7.848 26.9674 8.344 27.2234 8.968C27.4954 9.576 27.6314 10.32 27.6314 11.2C27.6314 12.272 27.3994 13.168 26.9354 13.888C26.4874 14.592 25.7514 15.12 24.7274 15.472C23.7034 15.824 22.3354 16 20.6234 16C19.5034 16 18.4954 15.944 17.5994 15.832C16.7034 15.704 15.8314 15.536 14.9834 15.328V11.944L15.0794 11.872ZM41.0816 12.52V15.784H30.0416V0.592H33.8816V12.52H41.0816Z" fill="white"/>
</svg>
